<?xml version="1.0" encoding="UTF-8" standalone="no"?>
<!-- Created with Inkscape (http://www.inkscape.org/) -->

<svg
   xmlns:dc="http://purl.org/dc/elements/1.1/"
   xmlns:cc="http://creativecommons.org/ns#"
   xmlns:rdf="http://www.w3.org/1999/02/22-rdf-syntax-ns#"
   xmlns:svg="http://www.w3.org/2000/svg"
   xmlns="http://www.w3.org/2000/svg"
   xmlns:sodipodi="http://sodipodi.sourceforge.net/DTD/sodipodi-0.dtd"
   xmlns:inkscape="http://www.inkscape.org/namespaces/inkscape"
   width="64px"
   height="64px"
   id="svg2816"
   version="1.1"
   inkscape:version="0.47 r22583"
   sodipodi:docname="logo.svg"
   inkscape:export-filename="/home/gildor/programmation/ounit-website/images/logo.png"
   inkscape:export-xdpi="90"
   inkscape:export-ydpi="90">
  <defs
     id="defs2818">
    <inkscape:perspective
       sodipodi:type="inkscape:persp3d"
       inkscape:vp_x="0 : 32 : 1"
       inkscape:vp_y="0 : 1000 : 0"
       inkscape:vp_z="64 : 32 : 1"
       inkscape:persp3d-origin="32 : 21.333333 : 1"
       id="perspective2824" />
    <inkscape:perspective
       id="perspective2836"
       inkscape:persp3d-origin="0.5 : 0.33333333 : 1"
       inkscape:vp_z="1 : 0.5 : 1"
       inkscape:vp_y="0 : 1000 : 0"
       inkscape:vp_x="0 : 0.5 : 1"
       sodipodi:type="inkscape:persp3d" />
    <inkscape:perspective
       id="perspective3639"
       inkscape:persp3d-origin="0.5 : 0.33333333 : 1"
       inkscape:vp_z="1 : 0.5 : 1"
       inkscape:vp_y="0 : 1000 : 0"
       inkscape:vp_x="0 : 0.5 : 1"
       sodipodi:type="inkscape:persp3d" />
    <inkscape:perspective
       id="perspective3666"
       inkscape:persp3d-origin="0.5 : 0.33333333 : 1"
       inkscape:vp_z="1 : 0.5 : 1"
       inkscape:vp_y="0 : 1000 : 0"
       inkscape:vp_x="0 : 0.5 : 1"
       sodipodi:type="inkscape:persp3d" />
    <inkscape:perspective
       id="perspective3697"
       inkscape:persp3d-origin="0.5 : 0.33333333 : 1"
       inkscape:vp_z="1 : 0.5 : 1"
       inkscape:vp_y="0 : 1000 : 0"
       inkscape:vp_x="0 : 0.5 : 1"
       sodipodi:type="inkscape:persp3d" />
    <inkscape:perspective
       id="perspective3697-5"
       inkscape:persp3d-origin="0.5 : 0.33333333 : 1"
       inkscape:vp_z="1 : 0.5 : 1"
       inkscape:vp_y="0 : 1000 : 0"
       inkscape:vp_x="0 : 0.5 : 1"
       sodipodi:type="inkscape:persp3d" />
  </defs>
  <sodipodi:namedview
     id="base"
     pagecolor="#ffffff"
     bordercolor="#666666"
     borderopacity="1.0"
     inkscape:pageopacity="0.0"
     inkscape:pageshadow="2"
     inkscape:zoom="5.5"
     inkscape:cx="2.1818182"
     inkscape:cy="32"
     inkscape:current-layer="layer1"
     showgrid="true"
     inkscape:document-units="px"
     inkscape:grid-bbox="true"
     inkscape:window-width="1280"
     inkscape:window-height="1000"
     inkscape:window-x="0"
     inkscape:window-y="0"
     inkscape:window-maximized="1" />
  <metadata
     id="metadata2821">
    <rdf:RDF>
      <cc:Work
         rdf:about="">
        <dc:format>image/svg+xml</dc:format>
        <dc:type
           rdf:resource="http://purl.org/dc/dcmitype/StillImage" />
        <dc:title></dc:title>
      </cc:Work>
    </rdf:RDF>
  </metadata>
  <g
     id="layer1"
     inkscape:label="Layer 1"
     inkscape:groupmode="layer">
    <rect
       style="fill:#ffffff;fill-opacity:1;fill-rule:nonzero;stroke:#000000;stroke-width:0.51649140999999998;stroke-miterlimit:0;stroke-opacity:1;stroke-dasharray:none"
       id="rect3886"
       width="52.710785"
       height="56.165329"
       x="6.5536995"
       y="5.8264275"
       ry="0" />
    <path
       style="fill:#ff2a2a;fill-opacity:1;fill-rule:nonzero;stroke:#f30000;stroke-width:0.22484969;stroke-opacity:1"
       d="m 12.205263,21.162294 c -0.08595,0.01016 -0.168113,0.04443 -0.238903,0.105398 -0.188773,0.16258 -0.211766,0.443617 -0.04919,0.63239 l 1.791771,2.079859 -1.791771,2.072833 c -0.16258,0.188772 -0.139587,0.476836 0.04919,0.639416 0.188773,0.16258 0.46981,0.139587 0.63239,-0.04919 l 1.700425,-1.974461 1.700427,1.974461 c 0.16258,0.188773 0.443617,0.211766 0.63239,0.04919 0.188773,-0.16258 0.211765,-0.450644 0.04919,-0.639416 l -1.791774,-2.072833 1.791771,-2.079859 c 0.16258,-0.188773 0.139587,-0.46981 -0.04919,-0.63239 -0.188773,-0.16258 -0.46981,-0.139587 -0.63239,0.04919 l -1.700424,1.974457 -1.700425,-1.974461 c -0.101613,-0.117983 -0.250242,-0.171507 -0.393487,-0.154584 z"
       id="rect2826" />
    <path
       style="fill:#00ff00;fill-opacity:1;fill-rule:nonzero;stroke:#00b900;stroke-width:0.25092956;stroke-miterlimit:4;stroke-opacity:1;stroke-dasharray:none"
       d="m 18.165982,11.014075 c -0.183534,-0.0082 -0.367781,0.08794 -0.46541,0.25698 l -3.49058,6.05578 -1.512583,-3.150793 c -0.115655,-0.240897 -0.396016,-0.345627 -0.624073,-0.223461 -0.228056,0.122166 -0.316627,0.418312 -0.200973,0.659209 l 1.777022,3.709444 c 0.109872,0.228851 0.371563,0.330178 0.59234,0.234635 0.172941,-0.0036 0.352292,-0.09775 0.444256,-0.25698 l 3.839637,-6.647952 c 0.130172,-0.225388 0.04841,-0.484521 -0.179817,-0.59217 -0.05706,-0.02692 -0.11864,-0.04196 -0.179819,-0.04469 z"
       id="rect3627" />
    <path
       style="fill:#00ff00;fill-opacity:1;fill-rule:nonzero;stroke:#00b900;stroke-width:0.25092956;stroke-miterlimit:4;stroke-opacity:1;stroke-dasharray:none"
       d="m 18.165983,29.368661 c -0.183535,-0.0082 -0.367782,0.08794 -0.465411,0.25698 l -3.49058,6.055781 -1.512583,-3.150794 c -0.115655,-0.240896 -0.396017,-0.345627 -0.624073,-0.223461 -0.228057,0.122167 -0.316627,0.418312 -0.200973,0.659209 l 1.777022,3.709444 c 0.109872,0.228852 0.371563,0.330178 0.59234,0.234635 0.172941,-0.0036 0.352292,-0.09775 0.444256,-0.25698 l 3.839637,-6.647951 c 0.130172,-0.225388 0.04841,-0.484522 -0.179817,-0.592171 -0.05706,-0.02692 -0.118639,-0.04197 -0.179818,-0.04469 z"
       id="rect3627-2" />
    <path
       style="fill:#ff2a2a;fill-opacity:1;fill-rule:nonzero;stroke:#f30000;stroke-width:0.22484969;stroke-opacity:1"
       d="m 12.205264,39.516879 c -0.08595,0.01016 -0.168113,0.04443 -0.238902,0.105399 -0.188773,0.162579 -0.211767,0.443616 -0.04919,0.632389 l 1.79177,2.079859 -1.79177,2.072833 c -0.162581,0.188773 -0.139587,0.476837 0.04919,0.639417 0.188772,0.16258 0.469809,0.139587 0.632389,-0.04919 l 1.700426,-1.974461 1.700427,1.974461 c 0.16258,0.188773 0.443617,0.211766 0.632389,0.04919 0.188773,-0.16258 0.211766,-0.450644 0.04919,-0.639417 l -1.791773,-2.072833 1.79177,-2.079859 c 0.162581,-0.188773 0.139588,-0.46981 -0.04919,-0.632389 -0.188772,-0.162581 -0.469809,-0.139588 -0.632389,0.04919 l -1.700424,1.974457 -1.700426,-1.974462 C 12.497139,39.55348 12.348509,39.499956 12.205264,39.516879 z"
       id="rect2826-1" />
    <path
       style="fill:#ff2a2a;fill-opacity:1;fill-rule:nonzero;stroke:#f30000;stroke-width:0.22484969;stroke-opacity:1"
       d="m 12.205264,48.694173 c -0.08595,0.01016 -0.168113,0.04443 -0.238902,0.105399 -0.188773,0.162579 -0.211767,0.443616 -0.04919,0.632389 l 1.79177,2.07986 -1.79177,2.072832 c -0.162581,0.188773 -0.139587,0.476836 0.04919,0.639416 0.188772,0.162581 0.469809,0.139588 0.632389,-0.04919 l 1.700426,-1.974461 1.700427,1.974461 c 0.16258,0.188773 0.443617,0.211766 0.632389,0.04919 0.188773,-0.16258 0.211766,-0.450643 0.04919,-0.639416 l -1.791773,-2.072832 1.79177,-2.07986 c 0.162581,-0.188773 0.139588,-0.46981 -0.04919,-0.632389 -0.188772,-0.16258 -0.469809,-0.139588 -0.632389,0.04919 l -1.700424,1.974457 -1.700426,-1.974462 C 12.497139,48.730775 12.348509,48.67725 12.205264,48.694173 z"
       id="rect2826-5" />
    <text
       xml:space="preserve"
       style="font-size:8px;font-style:normal;font-weight:normal;fill:#000000;fill-opacity:1;stroke:none;font-family:Bitstream Vera Sans"
       x="12.363636"
       y="4.181818"
       id="text3806"><tspan
         sodipodi:role="line"
         id="tspan3808"></tspan></text>
    <path
       style="fill:#000000;fill-opacity:1;fill-rule:nonzero;stroke:none"
       id="path3876"
       d="m 19.526979,13.910455 c 0.03547,-0.0393 0.06178,-0.146353 0.106406,-0.117888 0.08431,0.05377 0.04443,0.220454 0.131503,0.269624 0.05687,0.03212 0.106415,-0.07948 0.168316,-0.100313 0.06238,-0.02099 0.134698,0.0011 0.19617,-0.02237 0.334218,-0.127813 0.04514,-0.182775 0.374739,-0.05493 0.616516,-0.126307 0.765212,0.130508 1.039054,0.62977 0.39582,0.214241 0.0035,-0.02328 0.398736,0.310883 0.06829,0.05774 0.15387,0.09307 0.220804,0.152375 0.258388,0.228928 0.45898,0.488146 0.638651,0.779703 0.0791,-0.0295 0.15426,-0.103726 0.237293,-0.08849 0.221441,0.164752 0.216659,0.210632 0.493802,0.233608 0.290628,0.02409 0.599645,-0.07838 0.879716,-0.138527 0.436548,-0.216 0.905675,-0.332828 1.338214,-0.553069 0.111932,-0.05699 0.208928,-0.157983 0.333252,-0.175891 0.109304,-0.01575 0.214053,0.05443 0.321079,0.08164 0.397185,0.08462 0.853651,-0.55579 1.193426,-0.409078 0.067,0.02893 0.112448,0.09306 0.168672,0.139598 0.04391,-0.0069 0.08914,-0.03338 0.131716,-0.02065 0.193101,0.05773 0.214323,0.459445 0.256449,0.597056 0.07664,0.250347 0.0732,0.217697 0.20289,0.414532 0.131953,0.142104 0.261896,0.680074 0.411025,0.761101 0.06277,0.03411 0.140353,-0.106196 0.20233,-0.07067 0.0997,0.05716 0.106566,0.206519 0.183534,0.291863 0.05763,0.0639 0.141478,0.09797 0.212217,0.146958 0.462113,-0.240096 1.124752,-0.168431 1.536529,-0.507326 0.135443,-0.111469 0.226733,-0.267718 0.3401,-0.401577 0.216596,-0.07168 0.478695,-0.130946 0.650514,-0.299544 0.108504,-0.106469 0.154676,-0.265176 0.260452,-0.374356 0.132275,-0.13653 0.402833,-0.226277 0.584299,-0.271729 0.04119,-0.03565 0.07318,-0.08624 0.123568,-0.106949 0.03296,-0.01355 0.07113,0.01902 0.106171,0.01252 0.03854,-0.0071 0.07327,-0.074 0.105558,-0.05179 0.05469,0.03762 0.04108,0.129404 0.08259,0.181211 0.01742,0.02175 0.0537,0.01495 0.08055,0.02243 0.022,0.04626 0.04399,0.09253 0.06599,0.138796 0.160441,0.004 0.174565,0.21948 0.265808,0.276005 0.03866,0.02395 0.08818,-0.04257 0.132515,-0.03244 0.361799,0.08275 -0.0053,0.25809 0.423493,-0.09386 0.09934,-0.0264 0.198671,-0.05281 0.298006,-0.07921 0.115851,-0.02134 0.233583,-0.03422 0.347552,-0.06402 0.132071,-0.03453 0.255454,-0.09949 0.388844,-0.128516 0.01003,-0.0022 0.791118,-0.08549 0.807621,-0.09116 0.135767,-0.04667 0.247442,-0.145651 0.371163,-0.218477 0.146447,0.122403 0.692159,0.01217 0.851076,0.07722 0.07806,0.03195 0.116203,0.125667 0.189018,0.168244 0.05058,0.02957 0.116123,0.02066 0.17066,0.04207 0.05629,0.0221 0.105994,0.05823 0.158992,0.08734 0.612651,0.748333 -0.251698,-0.274747 0.302459,0.29139 0.110101,0.112481 0.155566,0.265792 0.307155,0.338793 0.01423,0.0069 0.3191,0.03042 0.333528,0.0316 0.423666,0.578504 -0.07814,0.05721 0.385612,0.126974 0.09552,0.01437 0.153152,0.117752 0.229728,0.176629 0.09609,0.03227 0.187338,0.08741 0.288263,0.09681 0.950652,0.08854 -0.299068,-0.262282 0.845714,0.124977 0.182622,0.016 0.366986,0.0778 0.547866,0.04799 0.91109,-0.15019 0.241921,-0.351212 1.168139,-0.322601 0.602759,0.01862 0.433684,0.19716 0.996677,0.246195 0.134659,0.01173 0.268407,-0.03224 0.40261,-0.04837 0.223236,-0.01438 0.441703,0.06318 0.663945,0.06114 0.09446,-8.64e-4 0.186599,-0.04256 0.280928,-0.0374 0.09295,0.0051 0.179292,0.08364 0.270984,0.06755 0.09931,-0.01742 0.163183,-0.122268 0.256642,-0.160111 0.08265,-0.03347 0.175168,-0.03347 0.262751,-0.0502 0.461109,0.07577 0.0611,0.04642 0.50865,-0.02305 0.0789,-0.01225 0.164526,0.01791 0.239333,-0.01001 0.08742,-0.03263 0.133571,-0.165724 0.226863,-0.163985 0.601632,0.01121 -0.137811,0.418436 0.432889,0.02855 0.240403,-0.02869 0.488558,-0.108513 0.729886,-0.122987 0.105097,-0.0063 0.210055,0.01614 0.315315,0.01852 0.404595,0.0091 0.377538,-0.0037 0.800461,-0.05449 0.162003,0.01873 0.323138,0.06448 0.486009,0.05618 0.181193,-0.0092 0.355216,-0.07416 0.533435,-0.108134 0.231845,-0.0442 0.854404,-0.161084 1.098042,-0.166321 0.119797,-0.0026 0.691877,0.0727 0.841467,0.09141 0.09374,-0.03722 0.187477,-0.07445 0.281215,-0.111669 0,0 -3.4e-5,0.666921 -3.4e-5,0.666921 l 0,0 c -0.09265,0.01993 -0.185297,0.03986 -0.277945,0.05978 -0.687328,0.191916 -0.04834,0.06665 -0.840586,0.04107 -0.179778,-0.0058 -0.358866,0.03003 -0.538736,0.0308 -0.186555,8.06e-4 -0.374807,-0.05527 -0.559064,-0.02606 -0.186971,0.02964 -0.346091,0.162846 -0.531914,0.198992 -0.158732,0.03088 -0.323413,-7.72e-4 -0.48512,-0.0012 -0.01777,-0.0012 -0.747134,-0.05354 -0.800921,-0.04469 -0.111049,0.01826 -0.203669,0.09899 -0.312387,0.128075 -0.25711,0.06878 -0.501973,-0.06143 -0.731339,0.109776 -0.02807,0.0028 -0.405416,0.03964 -0.428607,0.04621 -0.07943,0.02251 -0.145351,0.08414 -0.226194,0.100868 -0.25944,0.05368 -0.511178,-0.105634 -0.745102,0.103397 -0.575609,-0.154152 0.03914,-0.03462 -0.531619,-0.0096 -0.09278,0.0041 -0.183092,-0.03747 -0.275956,-0.03831 -0.09496,-8.55e-4 -0.188063,0.02915 -0.282935,0.03327 -0.05006,0.0022 -0.636636,-0.01766 -0.666101,-0.01861 -0.389486,-0.05914 -0.449101,-0.08534 -0.859444,-0.072 -0.177836,0.0058 -0.354657,0.05782 -0.532012,0.04353 -0.199263,-0.01606 -0.384802,-0.137108 -0.584679,-0.133509 -0.201869,0.0036 -0.39043,0.103057 -0.585646,0.154586 -0.183516,-0.0033 -0.367031,-0.0065 -0.550547,-0.0098 -1.026366,-0.454993 0.02157,-0.135757 -0.851823,-0.02604 -0.199141,0.02502 -0.6741,-0.354997 -0.940678,-0.193072 -0.02586,-0.04322 -0.260403,-0.449532 -0.317649,-0.493002 -0.04488,-0.03408 -0.111922,-0.01331 -0.167659,-0.02159 -0.260714,-0.03873 -0.355441,-0.14226 -0.457548,-0.397868 -0.347475,0.03896 0.04179,0.04284 -0.307535,-0.210726 -0.01499,-0.01088 -0.365578,-0.01168 -0.400833,-0.01852 -0.506406,-0.09824 -0.03689,-0.134002 -0.602342,-0.02584 -0.391792,0.09028 -0.785958,0.184297 -1.173896,0.289616 -0.255127,0.06926 -0.471907,0.166452 -0.736496,0.194554 -0.100248,0.01065 -0.201587,-0.0038 -0.30238,-0.0058 -0.04739,0.01859 -0.363119,0.158126 -0.446756,0.138821 -0.06189,-0.01429 -0.08471,-0.106464 -0.146262,-0.12214 -0.131954,-0.0336 -0.164469,0.22036 -0.31509,-0.09734 -0.01722,-0.09743 -0.0032,-0.206016 -0.05165,-0.292284 -0.01643,-0.02927 -0.04495,0.08415 -0.07433,0.06793 -0.04598,-0.02538 -0.02047,-0.11425 -0.06366,-0.144121 -0.02477,-0.01713 -0.04787,0.05243 -0.07741,0.04657 -0.186043,-0.03691 0.03269,-0.32669 -0.184604,0.146133 -0.0498,0.0086 -0.09891,0.02784 -0.149405,0.02581 -0.06744,-0.0027 -0.141269,-0.07547 -0.19855,-0.03977 -0.105904,0.06602 -0.140314,0.207075 -0.221666,0.301709 -0.08349,0.09713 -0.169133,0.194904 -0.271459,0.271934 -0.847228,0.637783 0.281178,-0.425552 -0.645049,0.498711 -1.33921,0.555869 0.756119,-0.358206 -0.716458,0.459608 -0.267496,0.148557 -0.411201,0.05326 -0.687372,0.0805 -0.09757,0.0096 -0.191096,0.04392 -0.286643,0.06588 -0.08465,0.0083 -0.169291,0.01663 -0.253936,0.02494 -0.37389,-0.02605 -0.361494,-0.101827 -0.635243,-0.332607 -0.05585,-0.04708 -0.131117,-0.07379 -0.17449,-0.132567 -0.117473,-0.159186 -0.195565,-0.462074 -0.252465,-0.641786 -0.254809,-0.282144 -0.136451,-0.430993 -0.281937,-0.674236 -0.01535,-0.02567 -0.07376,0.01208 -0.08865,-0.01386 -0.411315,-0.716309 0.219412,0.10518 -0.154122,-0.359768 -0.587469,0.122684 0.407457,-0.103393 -0.335701,0.147561 -0.446455,0.150761 -0.647939,-0.29386 -1.002366,0.285169 -0.251898,0.03683 -0.793162,0.03352 -0.996337,0.137804 -0.127421,0.0654 -0.201473,0.216196 -0.334168,0.2701 -1.265322,0.514008 0.659547,-0.633328 -0.661358,0.209002 -0.105491,0.01751 -0.214311,0.02095 -0.316475,0.05253 -0.106195,0.03283 -0.193243,0.122113 -0.303105,0.139018 -0.09708,0.01494 -0.193093,-0.03751 -0.290793,-0.04763 -0.09038,-0.0094 -0.189986,0.02759 -0.272372,-0.01073 -0.195531,-0.09094 -0.279411,-0.347124 -0.472052,-0.442378 -0.07781,0.01512 -0.15863,0.07159 -0.233429,0.04536 -0.0953,-0.03342 -0.147408,-0.138099 -0.222761,-0.20533 -0.300046,-0.267704 -0.601962,-0.520294 -0.828679,-0.858691 -0.466659,-0.811538 0.09667,0.0031 -0.334746,-0.310685 -0.06997,-0.05089 -0.07885,-0.16718 -0.155052,-0.208151 -0.04826,-0.02595 -0.105287,0.04516 -0.159727,0.0389 -0.02735,-0.0031 -0.305611,-0.153872 -0.322777,-0.162986 -0.163629,0.0961 -0.181644,0.148143 -0.382336,0.101579 -0.07321,-0.01699 -0.135181,-0.117827 -0.205787,-0.09209 -0.09252,0.03373 -0.0927,0.190317 -0.181344,0.233209 -0.123636,0.05983 -0.238551,-0.206633 -0.260608,-0.243361 0,0 0.03729,-0.578666 0.03729,-0.578666 z" />
    <path
       style="fill:#000000;fill-opacity:1;fill-rule:nonzero;stroke:none"
       id="path3878"
       d="m 20.035156,24.495908 c 0.14856,-0.160466 0.361489,-0.380259 0.612956,-0.385087 0.115143,-0.0023 0.220169,0.09682 0.334262,0.08208 0.08113,-0.01048 0.674002,-0.347263 0.726453,-0.376255 1.2345,-1.049462 -0.369155,0.161065 0.749617,-0.294119 0.145024,-0.05901 0.19749,-0.243356 0.336831,-0.313405 0.09128,-0.04589 0.207945,0.0024 0.310347,-0.01195 0.166365,-0.02331 0.325352,-0.08091 0.489966,-0.113391 0.550347,-0.127769 -0.155374,-0.0086 0.379847,0.04956 0.0612,0.0067 0.114257,-0.0675 0.174751,-0.05654 0.101132,0.01832 0.381064,0.307702 0.456446,0.381871 0.133702,0.144291 0.417183,0.443143 0.631033,0.453071 0.707745,0.03286 -0.296884,-0.135386 0.440102,0.0081 0.138912,0.03722 0.420135,0.12757 0.565956,0.100802 0.124586,-0.02287 0.230208,-0.100553 0.345575,-0.150294 0.128144,-0.05525 0.254505,-0.114411 0.384955,-0.164678 0.537256,-0.185273 0.27169,-0.08677 0.796758,-0.295363 0.163383,-0.0518 0.473589,-0.168773 0.662326,-0.163587 0.08893,0.0024 0.170605,0.08487 0.257368,0.06639 0.08877,-0.01891 0.117519,-0.169001 0.208468,-0.165634 0.08482,0.0031 0.102177,0.129482 0.168213,0.179582 0.03783,0.0287 0.09032,0.03388 0.135474,0.05081 0.213426,0.0025 0.296011,0.221599 0.481909,0.269858 0.119403,0.03099 0.246383,0.02664 0.367981,0.04887 0.171806,0.05227 0.418514,0.142151 0.601047,0.128394 0.135565,-0.01022 0.257491,-0.09219 0.393011,-0.102917 0.144474,-0.01144 0.288312,0.04423 0.433123,0.03751 1.592684,-0.0738 -0.661365,-0.110437 0.876862,-0.06571 0.121109,0.01875 0.614437,0.103085 0.756144,0.09627 0.107571,-0.0052 0.207726,-0.06239 0.315364,-0.06617 0.207875,-0.0073 0.31684,0.07976 0.509094,0.122107 0.0725,0.01598 0.147872,0.01675 0.221808,0.02513 0.633402,0.679065 -0.159626,-0.07911 0.394166,0.240339 0.08293,0.04783 0.111196,0.16181 0.199519,0.200199 0.06939,0.03016 0.152437,-0.01274 0.22888,-0.014 0.353569,-0.0058 0.212752,-0.02611 0.507481,0.249641 0.100553,0.0093 0.205521,-0.0014 0.301658,0.02779 0.12062,0.03662 0.214334,0.134986 0.336719,0.166007 0.834799,0.211601 -0.09923,-0.210075 0.805063,0.05352 0.973573,0.283787 -0.04811,0.243922 0.99503,0.202868 0.63818,0.202379 0.436673,0.188626 1.105084,0.204291 0.188037,0.0044 0.378778,0.02455 0.564263,-0.0048 0.184666,-0.0292 0.346717,-0.145356 0.532338,-0.168608 0.92473,-0.11584 0.07158,0.325341 0.937412,-0.265523 0.321153,0.107166 0.540648,-0.17204 0.821934,-0.205191 0.12889,-0.01519 0.264224,0.109011 0.384076,0.06196 0.15418,-0.06052 0.216593,-0.240148 0.339833,-0.34614 0.177569,-0.152716 0.38556,-0.271291 0.570451,-0.41614 0.08052,-0.01189 0.161049,-0.02378 0.241574,-0.03568 0.07147,-0.02253 0.14037,-0.05422 0.214399,-0.06759 0.06069,-0.01096 0.130963,0.02298 0.185352,-0.0046 0.0745,-0.03777 0.08658,-0.176852 0.171237,-0.176167 0.08085,6.55e-4 0.08794,0.130504 0.150358,0.17877 0.03778,0.02922 0.09256,0.02989 0.138834,0.04484 0.164722,0.169362 0.32065,0.05423 0.520619,0.08328 0.08608,0.01251 0.161754,0.08898 0.247977,0.07739 0.173948,-0.0234 0.510213,-0.319732 0.614472,-0.401335 0.877236,0.106306 -0.202444,0.06092 0.671787,-0.231755 0.09478,-0.03173 0.193082,0.05601 0.292704,0.06926 0.495797,0.06596 0.246746,-0.269956 0.615949,0.05673 0.03829,-0.0053 0.33041,0.100581 0.347047,0.117733 0.04461,0.04599 0.04628,0.118982 0.08788,0.167391 0.06186,0.07198 0.163664,0.103235 0.24134,0.160109 0.05359,-0.07313 0.06976,-0.195411 0.160772,-0.219417 0.07243,-0.0191 0.104747,0.115079 0.178289,0.129985 0.134623,0.02728 0.326008,-0.134676 0.417558,-0.180485 0.22723,-0.113701 0.191318,-0.08668 0.435748,-0.0843 0.08299,-0.0037 0.340554,-0.01007 0.422967,-0.03291 0.06719,-0.01861 0.118785,-0.0847 0.188803,-0.08667 0.06632,-0.0019 0.116923,0.06287 0.181713,0.0763 0.05535,0.01148 0.306002,-0.01029 0.3604,-0.01417 0.252837,0.16766 0.212786,0.294603 0.511944,0.414687 0.05155,0.02069 0.100112,0.05829 0.156175,0.05864 0.09351,5.96e-4 0.172281,-0.06873 0.26077,-0.09712 0.03577,0.06061 0.07154,0.121232 0.107307,0.181849 0,0 0.0058,0.611663 0.0058,0.611663 l 0,0 c -0.04128,-0.01669 -0.08256,-0.03339 -0.123841,-0.05008 -0.16467,-0.04385 -0.288093,-0.01111 -0.44168,-0.09917 -0.06147,-0.03525 -0.116838,-0.07926 -0.172728,-0.12192 -0.05814,-0.04439 -0.09852,-0.115482 -0.169124,-0.139042 -0.05514,-0.0184 -0.115714,0.01645 -0.173571,0.02468 -0.05357,-0.0479 -0.09549,-0.110929 -0.160711,-0.143689 -0.04812,-0.02417 -0.109113,-0.0081 -0.162506,-0.01866 -0.05808,-0.01153 -0.111759,-0.04127 -0.170748,-0.04749 -0.218034,-0.02302 -0.389604,0.108049 -0.599895,0.132981 -0.07221,0.0078 -0.148952,-0.0015 -0.216628,0.02341 -0.08072,0.02971 -0.137673,0.101265 -0.216162,0.13585 -0.06851,0.03018 -0.146912,0.03454 -0.219081,0.05593 -0.07026,0.02082 -0.134644,0.06288 -0.207862,0.07061 -0.06394,0.0068 -0.126941,-0.03721 -0.190613,-0.02852 -0.06488,0.0088 -0.118604,0.05252 -0.177906,0.07878 -0.447889,0.04864 -0.281062,-0.167893 -0.466726,-0.362771 -0.05369,-0.05636 -0.225907,0.08119 -0.212718,-0.107521 -0.05081,-0.0091 -0.102928,-0.01317 -0.152435,-0.02724 -0.06621,-0.01881 -0.12412,-0.06899 -0.193257,-0.07097 -0.18328,-0.0053 -0.364758,0.137969 -0.518088,0.193713 -0.104244,0.0379 -0.215385,0.05628 -0.323077,0.08441 -0.115032,0.04285 -0.230065,0.08571 -0.345097,0.128568 -0.117329,-0.01126 -0.510021,-0.06729 -0.637765,-0.01164 -0.104684,0.0456 -0.147834,0.177554 -0.253221,0.221703 -0.06617,0.02773 -0.143573,-0.03171 -0.215705,-0.02525 -0.321076,0.02872 -0.1005,0.219384 -0.33007,-0.201044 -0.452752,0.242309 0.190209,-0.05028 -0.267785,-0.01966 -0.0644,0.0043 -0.09042,0.09707 -0.153168,0.111334 -0.0577,0.01312 -0.116567,-0.05224 -0.173684,-0.03703 -0.07955,0.02118 -0.133893,0.09117 -0.200839,0.136744 -0.07913,0.01037 -0.158262,0.02074 -0.237393,0.03111 -0.327131,0.252265 -0.576306,0.357587 -0.932863,0.560222 -0.391921,0.222732 -0.727133,0.434876 -1.210278,0.422713 -0.153157,-0.0065 -0.307071,-0.03524 -0.45947,-0.01954 -0.349602,0.03603 -0.670799,0.218373 -1.027185,0.226421 -0.188381,0.01938 -0.379438,-0.0074 -0.568504,0.0047 -0.867781,0.05582 -0.272209,0.161564 -1.113442,-0.106643 -0.175108,-0.01502 -0.350216,-0.03003 -0.525324,-0.04504 -0.15843,-0.06407 -0.304154,-0.171916 -0.475288,-0.192204 -0.146042,-0.01731 -0.285175,0.08069 -0.432317,0.08461 -0.399849,0.01067 -0.715053,-0.229618 -1.01553,-0.438712 -0.08825,-0.04877 -0.166225,-0.120103 -0.264742,-0.146301 -0.605317,-0.160975 0.08487,0.176048 -0.477704,-0.01756 -0.261984,-0.09016 -0.151595,-0.147989 -0.394435,-0.267596 -0.06171,-0.03039 -0.135187,-0.03182 -0.202781,-0.04773 -0.07063,-0.01834 -0.144483,-0.02804 -0.211892,-0.05504 -0.0808,-0.03237 -0.144561,-0.100516 -0.22945,-0.12172 -0.08458,-0.02113 -0.175288,0.005 -0.262567,-0.0012 -0.103998,-0.0073 -0.20582,-0.03701 -0.310086,-0.03911 -0.305415,-0.0061 -0.452186,0.04911 -0.752922,0.118264 -0.144241,0.0038 -0.288574,0.0054 -0.432725,0.01163 -0.150047,0.0064 -0.300004,0.03717 -0.449748,0.02616 -0.14804,-0.01089 -0.286277,-0.08956 -0.43476,-0.09123 -0.135314,-0.0015 -0.261205,0.08436 -0.396504,0.08187 -0.211077,-0.0038 -0.396032,-0.167886 -0.616919,-0.134615 -0.390823,0.07736 -0.404927,-0.0044 -0.632562,-0.281091 -0.03797,-0.04614 -0.05012,-0.127606 -0.110606,-0.140749 -0.05027,-0.01092 -0.08083,0.06025 -0.121243,0.09038 -0.0371,-0.08764 -0.04449,-0.192509 -0.11131,-0.262903 -0.116044,-0.122248 -0.301505,0.09025 -0.355799,0.112816 -0.295672,0.122935 -0.614885,-0.04342 -0.904794,0.117223 -0.555104,0.165863 -0.285243,0.03888 -0.795021,0.407092 -0.124685,0.04073 -0.26574,-0.05551 -0.394795,-0.02942 -0.130686,0.02642 -0.223758,0.145092 -0.352038,0.180411 -0.188197,0.05182 -0.40052,-0.04968 -0.587347,0.03227 -0.07923,-0.01598 -0.156672,-0.04952 -0.237692,-0.04795 -0.07928,0.0015 -0.153992,0.0782 -0.230024,0.05703 -0.08121,-0.02261 -0.107169,-0.126585 -0.177768,-0.170545 -0.05033,-0.03133 -0.129695,-0.0095 -0.173692,-0.04829 -0.354162,-0.312653 0.05355,-0.184838 -0.288105,-0.262088 -0.410184,-0.04537 -0.250383,-0.330041 -0.438748,-0.382396 -0.07641,-0.02124 -0.09884,0.19584 -0.168424,0.159354 -0.422778,-0.221684 0.08491,-0.514957 -0.34235,-0.190459 -0.08419,0.01776 -0.408052,0.0813 -0.473773,0.116795 -0.110424,0.05965 -0.17666,0.185602 -0.296307,0.22667 -0.110405,0.0379 -0.242002,-0.04128 -0.352619,-0.0039 -0.140802,0.04754 -0.242996,0.164026 -0.364494,0.246039 -0.127921,0.04088 -0.255841,0.08177 -0.383761,0.12265 -0.818724,0.426259 0.06009,-0.0045 -0.734167,0.310335 -0.112502,0.04459 -0.214783,0.109661 -0.326303,0.156376 -0.08906,0.0373 -0.196279,0.04045 -0.274412,0.09526 -0.08789,0.06165 -0.107802,0.194602 -0.205538,0.241386 -0.0496,0.02374 -0.09895,-0.04797 -0.148419,-0.07196 0,0 -0.01406,-0.668762 -0.01406,-0.668762 z" />
    <path
       style="fill:#000000;fill-opacity:1;fill-rule:nonzero;stroke:none"
       id="path3880"
       d="m 20.035158,32.800239 c 0.03813,-0.06453 0.05044,-0.1545 0.114398,-0.193583 0.368239,-0.22503 -0.07284,0.384168 0.350854,-0.04949 0.09311,-0.0953 0.09533,-0.275522 0.212841,-0.338312 0.07337,-0.03921 0.14408,0.103769 0.227271,0.103141 0.07998,-6.03e-4 0.143347,-0.07099 0.21502,-0.106478 0.19332,-0.348347 0.293941,-0.210395 0.601575,-0.248038 0.05691,-0.007 0.111159,-0.02821 0.166298,-0.04392 0.05145,-0.01466 0.106006,-0.07199 0.153394,-0.04717 0.06702,0.0351 0.08133,0.127603 0.121989,0.191404 0.02638,0.110709 0.04512,0.223521 0.07914,0.332127 0.01873,0.0598 0.05935,0.111172 0.07841,0.170871 0.05334,0.167063 0.03617,0.353943 0.103689,0.515798 0.0127,0.03045 0.05659,0.03395 0.08489,0.05092 0.02229,0.08374 0.04457,0.167478 0.06686,0.251217 0.311328,0.20401 -0.130308,-0.05633 0.26413,0.06691 0.07935,0.02479 0.136276,0.134487 0.218255,0.120685 0.10862,-0.01829 0.156505,-0.169459 0.261884,-0.20152 0.100524,-0.03059 0.209418,0.01751 0.314127,0.02627 0.118487,-0.04364 0.236974,-0.08728 0.355461,-0.130921 0.372849,-0.187702 0.749037,-0.391325 1.136454,-0.548069 0.114317,-0.04625 0.245072,-0.05036 0.353506,-0.109085 1.226583,-0.664335 -0.45992,0.06775 0.621362,-0.380697 0.726369,-0.402724 -0.140667,0.008 0.541303,-0.123682 0.08439,-0.0163 0.141307,-0.108748 0.225802,-0.124502 0.06583,-0.01227 0.131139,0.06419 0.195569,0.04594 0.07349,-0.02081 0.09674,-0.155478 0.172944,-0.150309 0.0765,0.0052 0.101542,0.114914 0.152313,0.172371 0.04591,-0.07559 0.0537,-0.19921 0.137733,-0.226786 0.0576,-0.0189 0.07597,0.0948 0.108408,0.146017 0.03181,0.05861 0.06361,0.117214 0.09542,0.175821 0.03562,0.0021 0.08341,-0.02073 0.106855,0.0062 0.372726,0.42762 -0.120745,0.118748 0.268671,0.330657 0.0644,0.02294 0.130501,0.04159 0.193208,0.06882 0.08076,0.03507 0.149958,0.10118 0.236425,0.117777 0.395602,0.07594 0.170099,-0.156123 0.589051,0.04323 0.623498,0.296685 0.05531,0.323269 0.757729,0.156103 0.148324,-0.0042 0.297455,-0.02866 0.44497,-0.01264 0.160778,0.01746 0.31065,0.101392 0.472009,0.112242 0.164813,0.01108 0.328685,-0.03349 0.493289,-0.04733 0.439851,-0.037 0.848275,-0.06539 1.286513,-0.01568 0.293007,-0.09576 0.326422,-0.170251 0.615614,-0.03715 0.09443,0.04346 0.152904,0.158959 0.254721,0.179919 0.08697,0.0179 0.168902,-0.09383 0.255644,-0.07485 0.309213,0.236736 0.139336,0.172093 0.502371,0.212031 0.487336,0.107461 0.974548,0.03554 1.465008,0.02295 0.160721,-0.0041 0.322931,0.0269 0.48229,0.0056 0.167941,-0.02244 0.326604,-0.09033 0.489906,-0.135501 1.021394,-0.449565 -0.07094,-0.121613 0.887821,0.05506 0.223425,0.04117 0.426099,-0.225255 0.65179,-0.199228 0.577079,0.06655 -0.05213,0.293636 0.48266,0.03435 0.06922,0.04112 0.130451,0.100508 0.20765,0.123359 0.06336,0.01875 0.132674,-0.01169 0.198209,-0.0032 0.150427,0.01942 0.291647,0.08804 0.441978,0.10819 0.134184,0.01799 0.443978,0.0163 0.57099,0.01749 0.109594,-0.03146 0.219188,-0.06291 0.328782,-0.09437 0.115148,0.0094 0.232419,0.05221 0.345442,0.02826 0.338812,-0.07178 0.259296,-0.287228 0.61392,-0.160527 0.323902,0.232982 0.155171,0.159683 0.494562,0.244938 0.164325,-0.039 0.287093,0.13788 0.440518,0.133931 0.08921,-0.0023 0.161784,-0.08528 0.250569,-0.09432 0.209905,-0.02138 0.416272,0.107467 0.62654,0.09002 0.129446,-0.01074 0.249272,-0.07314 0.373907,-0.109716 0.131216,-0.03269 0.25846,-0.101339 0.393648,-0.09808 0.134997,0.0033 0.253048,0.109256 0.387866,0.116931 0.513773,0.02925 0.22075,-0.142995 0.686485,-0.229827 0.148934,-0.02777 0.403593,0.08276 0.538133,0.131193 0.867393,-0.06415 -0.454775,-0.01795 0.411128,0.139754 0.06509,0.01185 0.113619,-0.107995 0.177156,-0.08953 0.07853,0.02282 0.07737,0.178301 0.158676,0.187118 0.423262,0.0459 -0.118983,-0.562047 0.335717,0.09176 0.111099,0.166184 0.562926,-0.0099 0.663655,0.0296 0.104848,0.04109 0.138546,0.214008 0.250435,0.226753 0.10138,0.01155 0.162352,-0.126667 0.255114,-0.169169 0.07768,-0.0356 0.165874,-0.04115 0.248811,-0.06172 0.152692,0.0926 0.249306,0.184257 0.435617,0.183699 0.06845,-2.05e-4 0.131811,-0.05635 0.199723,-0.04777 0.07075,0.0089 0.119463,0.09264 0.190637,0.09709 0.06726,0.0042 0.12293,-0.05734 0.18838,-0.07341 0.06521,-0.01601 0.133486,-0.01466 0.200229,-0.02199 0.06722,0.05495 0.116777,0.146564 0.201649,0.164853 0.07577,0.01633 0.143102,-0.06934 0.220478,-0.07388 0.08209,-0.0048 0.160348,0.03927 0.242248,0.0467 0.275495,0.02501 0.527474,-0.006 0.790062,-0.08232 0.269163,-0.284872 0.404498,0.06404 0.70328,-0.0306 0.06121,-0.01939 0.100197,-0.09085 0.16344,-0.101943 0.210885,-0.03701 0.03425,0.167735 0.164823,-0.02477 0,0 0.0323,0.805621 0.0323,0.805621 l 0,0 c -0.208377,-0.166219 -0.795571,0.07158 -1.060522,0.05995 -0.484103,0.06516 -0.03826,0.04948 -0.527151,-0.07525 -0.346908,-0.08851 -0.188572,-0.0066 -0.505317,0.08899 -0.07966,0.02404 -0.347082,0.03286 -0.43276,0.03721 -0.423175,0.126568 0.01533,0.05668 -0.389431,-0.09409 -0.05228,-0.01947 -0.344645,0.04343 -0.391711,0.04178 -0.07052,-0.0025 -0.136865,-0.04554 -0.207368,-0.04258 -0.07678,0.0032 -0.148294,0.04042 -0.222441,0.06063 -0.0275,-0.0078 -0.476679,-0.137653 -0.50389,-0.137528 -0.08791,4.04e-4 -0.166663,0.06902 -0.254578,0.06893 -0.25279,-2.38e-4 -0.423576,-0.242749 -0.67508,-0.05216 -0.424911,-0.455861 0.04364,-0.05076 -0.341113,-0.179787 -0.06339,-0.02126 -0.09535,-0.108936 -0.161448,-0.119016 -0.06126,-0.0093 -0.116755,0.09399 -0.173007,0.068 -0.522543,-0.24139 0.144198,-0.281738 -0.397451,-0.195713 -0.395359,-0.236645 -0.08026,-0.131027 -0.527294,-0.04936 -0.163644,0.0299 -0.523553,0.0032 -0.679058,0.01898 -0.129881,0.01321 -0.255302,0.05697 -0.384995,0.07191 -0.131059,0.0151 -0.263578,0.01199 -0.395367,0.01799 -0.125935,0.0083 -0.25187,0.01669 -0.377805,0.02504 -0.112557,0.04421 -0.218063,0.114807 -0.33767,0.132633 -2.37e-4,3.5e-5 -0.53384,-0.06753 -0.559259,-0.06918 -0.07628,-0.005 -0.158326,0.02799 -0.22933,-3.27e-4 -0.08649,-0.0345 -0.143927,-0.11817 -0.215891,-0.177255 -0.161821,-0.0067 -0.324795,0.01486 -0.485872,-0.002 -0.05889,-0.0062 -0.559259,-0.13551 -0.598154,-0.13413 -0.230441,0.0082 -0.435407,0.18273 -0.674646,0.152909 -0.10284,0.02922 -0.201775,0.08172 -0.30852,0.08765 -0.09175,0.0051 -0.178804,-0.04447 -0.270029,-0.05553 -0.2863,-0.03472 -0.188804,0.02863 -0.452607,-0.04109 -0.06788,-0.01794 -0.128353,-0.06127 -0.19758,-0.07295 -0.06876,-0.0116 -0.139428,0.0029 -0.209142,0.0043 -0.07489,-0.0065 -0.1516,-0.0019 -0.224658,-0.01955 -0.201338,-0.04875 -0.314174,-0.169941 -0.5382,-0.143237 -0.123269,0.01469 -0.227347,0.11371 -0.351025,0.124421 -1.038882,0.08996 0.257874,-0.309533 -0.883474,0.116301 -0.164455,-0.0129 -0.328617,-0.04707 -0.493366,-0.03871 -0.164134,0.0083 -0.321572,0.07151 -0.485048,0.08839 -0.14909,0.01539 -0.30014,-0.0035 -0.449574,0.0081 -0.132621,0.01029 -0.261902,0.05926 -0.394909,0.05741 -0.216023,-0.003 -0.419892,-0.135632 -0.64302,-0.08125 -0.08866,-0.0126 -0.181465,-0.0082 -0.265972,-0.03781 -0.414781,-0.14539 -0.05902,-0.140532 -0.486305,-0.246551 -0.141793,-0.03518 -0.397131,-0.0044 -0.535922,-0.01624 -0.108513,-0.0092 -0.215002,-0.03486 -0.322503,-0.05229 -0.126729,0.0093 -0.253653,0.01627 -0.380187,0.02794 -0.142169,0.01311 -0.283728,0.0605 -0.425799,0.04637 -0.164913,-0.0164 -0.312905,-0.123543 -0.478143,-0.136259 -1.111877,-0.08557 0.117615,0.177399 -0.970952,0.221749 -0.15461,0.0063 -0.29847,-0.0818 -0.447705,-0.122705 -0.137079,-0.01792 -0.273006,-0.05184 -0.411239,-0.05375 -0.121078,-0.0017 -0.2418,0.06595 -0.360709,0.04307 -0.118115,-0.02273 -0.202031,-0.136327 -0.316464,-0.173383 -0.08932,-0.02893 -0.18956,0.0014 -0.280952,-0.02007 -0.151397,-0.03563 -0.308957,-0.141773 -0.440703,-0.220384 -0.05508,-0.02815 -0.105701,-0.06769 -0.165246,-0.08446 -0.04382,-0.01234 -0.101588,0.02861 -0.136574,-5.21e-4 -0.05447,-0.04535 -0.04237,-0.141862 -0.09345,-0.190996 -0.02297,-0.02209 -0.06629,0.02323 -0.09511,0.0096 -0.03831,-0.01807 -0.0566,-0.06302 -0.0849,-0.09453 -0.0369,-0.01296 -0.0738,-0.02591 -0.110699,-0.03887 -0.343402,-0.299154 -0.347556,-0.03837 -0.709803,0.02536 -0.472625,0.08315 -0.05846,-0.130515 -0.533344,0.197954 -0.636966,0.101805 0.03653,-0.06803 -0.623915,0.376353 -0.104014,0.06999 -0.240802,0.07282 -0.354489,0.125668 -0.377566,0.175502 -0.716371,0.435742 -1.14656,0.485833 -0.119188,0.0444 -0.529588,0.211109 -0.677061,0.216399 -0.09494,0.0034 -0.18345,-0.06726 -0.278276,-0.06153 -0.286894,0.01734 -0.288115,0.259028 -0.552747,-0.09027 -0.26203,-0.390566 -0.253774,-0.871912 -0.407044,-1.307211 -0.0316,-0.03153 -0.06579,-0.06066 -0.09479,-0.09459 -0.03981,-0.04657 -0.05215,-0.129947 -0.111177,-0.146354 -0.0527,-0.01465 -0.09548,0.05398 -0.146033,0.07486 -0.05935,0.02451 -0.130722,0.02329 -0.182735,0.06094 -0.338265,0.244864 -0.0392,0.264567 -0.415635,0.151034 -0.210923,0.234044 -0.334458,0.342615 -0.654255,0.396674 -0.06312,0.01067 -0.13449,-0.02589 -0.192041,0.0021 -0.06736,0.03281 -0.101386,0.110341 -0.15208,0.165511 -0.04056,0.01232 -0.08111,0.02465 -0.121664,0.03697 0,0 -0.02766,-0.596057 -0.02766,-0.596057 z" />
    <path
       style="fill:#000000;fill-opacity:1;fill-rule:nonzero;stroke:none"
       id="path3882"
       d="m 20.035166,42.478308 c 0.0749,-0.0224 0.229754,-0.06359 0.281237,-0.10898 0.08189,-0.0722 0.126464,-0.179625 0.205062,-0.255405 0.07901,-0.07618 0.176781,-0.130139 0.263964,-0.196808 0.259849,-0.198708 0.359747,-0.283067 0.618241,-0.492904 0.259772,-0.108401 0.402923,-0.363907 0.626753,-0.515993 0.08407,-0.05712 0.191438,-0.07033 0.280953,-0.118466 0.08374,-0.04503 0.150897,-0.117996 0.236346,-0.159693 0.115806,-0.05651 0.247886,-0.07162 0.368198,-0.117769 0.04702,0.0035 0.101717,-0.01544 0.141052,0.01055 0.07095,0.04689 0.160861,0.271915 0.200696,0.333406 0.08559,0.132126 0.227424,0.247941 0.332583,0.363809 0.0512,-0.0019 0.104437,-0.02014 0.153594,-0.0057 0.06753,0.01984 0.114786,0.08888 0.183371,0.104687 0.03758,0.0087 0.479648,-0.03338 0.491429,-0.03249 0.1034,0.0079 0.203588,0.09028 0.304196,0.06515 0.131073,-0.03274 0.224612,-0.150189 0.336918,-0.225284 0.478466,0.159457 0.649016,-0.218206 1.093838,-0.309849 0.112094,-0.02309 0.234518,0.02077 0.342985,-0.01575 0.544448,-0.183294 0.05583,-0.31076 0.573103,-0.07726 0.221472,0.196157 0.346764,-0.185405 0.524123,-0.147065 0.117764,0.02546 0.154378,0.190942 0.256847,0.25432 0.114315,0.0707 0.685793,0.134235 0.849694,0.172125 0.144787,0.07504 0.486889,0.270421 0.653679,0.280521 0.137401,0.0083 0.268459,-0.08633 0.405774,-0.07669 0.158982,0.01116 0.300894,0.110387 0.457974,0.137326 0.16976,0.02911 0.846198,0.02989 1.009418,0.03177 0.486823,-0.19552 0.950808,0.136739 1.44151,0.0102 0.143951,-0.03712 0.251966,-0.180322 0.399556,-0.198123 0.188512,-0.02274 0.52185,0.199352 0.668924,0.283486 0.544025,-0.232611 0.0152,-0.09284 0.521972,0.02317 0.07283,0.01667 0.150669,-0.05675 0.221644,-0.03341 0.06949,0.02286 0.341468,0.332018 0.388966,0.366613 0.06015,0.04381 0.13523,0.06212 0.202845,0.09318 0.06974,2.45e-4 0.162512,-0.05106 0.209204,7.35e-4 0.10729,0.119016 0.08515,0.320246 0.189654,0.441718 0.02676,0.03111 0.488383,0.08273 0.501524,0.08641 0.885364,0.247885 -0.311065,0.02054 0.652182,0.182571 0.182685,0.0077 0.693605,0.03476 0.862169,0.01664 0.167015,-0.01796 0.327113,-0.07885 0.493456,-0.102226 0.165501,-0.02326 0.336254,-0.0039 0.499985,-0.03741 0.894725,-0.183198 0.06061,-0.201091 0.913837,-0.120715 0.292913,-0.101728 0.646829,-0.346947 0.980857,-0.284626 0.09584,0.01788 0.169854,0.103683 0.265454,0.122817 0.09972,0.01996 0.42825,-0.05425 0.516476,-0.07137 0.100181,-0.03273 0.196085,-0.08419 0.300543,-0.09819 0.235679,-0.03157 0.476678,0.03337 0.713287,0.0098 0.440112,-0.04392 0.880854,-0.184551 1.314187,-0.270517 0.323778,-0.0203 0.466417,0.0012 0.764222,-0.13034 0.106667,-0.04712 0.182334,-0.167031 0.297756,-0.183638 0.09275,-0.01335 0.168637,0.09062 0.261497,0.10317 0.823379,0.111263 -0.345074,-0.208353 0.418888,0.02166 0.176989,-0.02601 0.222766,0.173735 0.352717,0.223694 0.05079,0.01952 0.107997,-0.03638 0.16126,-0.02527 0.264345,0.05512 0.0712,0.255738 0.480515,0.203982 0.0695,-0.0111 0.138141,-0.03452 0.208517,-0.0333 0.0305,5.29e-4 0.517354,0.09322 0.520969,0.09357 0.103165,0.01008 0.208212,-0.0085 0.310923,0.0054 0.872072,0.11862 -0.180191,0.07441 0.693583,0.09002 0.295908,0.372477 0.619887,-0.229209 0.929215,-0.09806 0.113186,0.04799 0.132281,0.245988 0.253202,0.268168 0.09412,0.01726 0.132674,-0.149088 0.222941,-0.18083 0.06231,-0.02191 0.130159,0.02252 0.195239,0.03378 0.253294,0.239295 0.271449,0.01347 0.563503,-0.01904 0.07021,-0.0078 0.147482,0.02486 0.211875,-0.0042 0.70967,-0.320079 -0.223614,-0.104261 0.429639,-0.228663 0.07107,-0.02824 0.142148,-0.05648 0.213222,-0.08473 0,0 0.03504,0.759072 0.03504,0.759072 l 0,0 c -0.07171,0.0622 -0.143423,0.124399 -0.215134,0.186598 -0.141267,-0.0054 -0.315566,-0.03246 -0.448425,0.04509 -0.08483,0.04951 -0.117836,0.186013 -0.214796,0.20174 -0.07979,0.01294 -0.124617,-0.110842 -0.202021,-0.134133 -0.06366,-0.01915 -0.132653,0.009 -0.19898,0.01347 -0.06231,-0.01974 -0.124629,-0.03948 -0.186943,-0.05922 -0.398108,-0.107722 0.01257,-0.03015 -0.409374,-0.0018 -0.175491,0.01181 -0.34994,-0.04576 -0.525821,-0.04408 -0.699389,0.0067 0.07619,0.07854 -0.654789,-0.01239 -0.116431,-0.0072 -0.2327,-0.01785 -0.349292,-0.02163 -0.115546,-0.0038 -0.234987,0.02833 -0.346821,-9.66e-4 -0.114577,-0.03002 -0.192895,-0.17623 -0.311242,-0.171434 -0.115895,0.0047 -0.172905,0.179236 -0.28772,0.195705 -0.15896,0.0228 -0.271887,-0.242796 -0.454633,-0.159387 -0.05806,-0.0218 -0.112372,-0.0604 -0.174191,-0.06539 -0.05767,-0.0047 -0.117711,0.06359 -0.169434,0.03767 -0.07179,-0.03599 -0.06468,-0.175041 -0.142688,-0.19412 -0.06433,-0.01573 -0.09216,0.128684 -0.157891,0.120605 -0.07737,-0.0095 -0.113161,-0.107251 -0.169742,-0.160876 -0.05937,-0.0034 -0.118735,-0.0068 -0.178103,-0.01022 -0.08944,-0.0491 -0.277301,-0.182284 -0.39957,-0.128434 -0.104955,0.04622 -0.143239,0.202956 -0.254233,0.231809 -0.09963,0.0259 -0.19453,-0.07021 -0.295775,-0.08883 -0.395806,-0.07279 -0.362906,-0.02901 -0.765446,0.08747 -0.367731,0.129231 -0.494596,0.212943 -0.88934,0.201234 -0.144642,-0.0043 -0.286784,-0.101093 -0.428295,-0.07086 -0.145579,0.03111 -0.23305,0.19772 -0.37502,0.242501 -0.204426,0.06448 -0.438833,-0.103876 -0.642935,0.01286 -0.172402,0.01413 -0.347634,-4.82e-4 -0.518151,0.0286 -0.08987,0.01533 -0.170592,0.07247 -0.261414,0.08047 -0.200316,0.01765 -0.395216,-0.117214 -0.595342,-0.09752 -0.133536,0.01314 -0.253243,0.0888 -0.379865,0.133205 -0.595982,0.131368 -0.290437,0.08161 -0.917175,0.145915 -0.171001,0.03437 -0.32779,0.138066 -0.501936,0.147877 -0.168417,0.0095 -0.329068,-0.08737 -0.4977,-0.09156 -0.292463,-0.0073 -0.575574,0.139184 -0.871969,0.09978 -0.730468,0.102068 -0.0036,0.09076 -0.671307,-0.206651 -0.08462,-0.03769 -0.188276,0.01823 -0.277851,-0.0054 -0.08667,-0.02284 -0.154956,-0.09042 -0.235419,-0.129906 -0.339172,-0.166423 -0.136668,0.01429 -0.407596,-0.342518 -0.1546,-0.183832 -0.176584,-0.255124 -0.387459,-0.354682 -0.05962,-0.02815 -0.131767,-0.02423 -0.189896,-0.05535 -0.07484,-0.04006 -0.119459,-0.136317 -0.20235,-0.154598 -0.803879,-0.17729 0.394327,0.410972 -0.510474,-0.09231 -0.612902,-0.09043 0.01415,-0.03481 -0.665788,0.03315 -0.132686,0.01326 -0.266751,-0.0066 -0.400034,-0.0025 -0.480901,0.01494 -0.961304,0.05426 -1.443068,0.0097 -0.17254,-0.02198 -0.345081,-0.04395 -0.517622,-0.06593 -0.165957,0.03845 -0.327547,0.1185 -0.49787,0.115349 -0.159818,-0.003 -0.303852,-0.102265 -0.460698,-0.133085 -0.352606,-0.06929 -0.721068,-0.0241 -1.07355,-0.09809 -0.212336,-0.08085 -0.356008,-0.146845 -0.578881,-0.189217 -0.08773,-0.01668 -0.184676,0.0079 -0.266439,-0.02802 -0.09743,-0.04279 -0.149122,-0.164359 -0.249827,-0.198739 -0.160498,-0.05479 -0.357787,0.151716 -0.506943,-0.04318 -0.187129,0.06319 -0.365598,0.160884 -0.56071,0.191583 -0.111666,0.01757 -0.228265,-0.02416 -0.339114,-0.002 -0.126266,0.02523 -0.232757,0.118344 -0.359404,0.141586 -0.123268,0.02262 -0.253132,-0.03173 -0.375921,-0.0066 -0.12843,0.02624 -0.24033,0.104754 -0.360495,0.157131 -0.65236,0.286396 -0.04011,0.06376 -0.654219,0.171906 -0.09716,0.01711 -0.185382,0.08785 -0.283938,0.08348 -0.0863,-0.0038 -0.149912,-0.109027 -0.236262,-0.106509 -0.08145,0.0024 -0.149581,0.170535 -0.2132,0.119614 -0.109924,-0.08798 -0.09113,-0.266445 -0.136691,-0.399667 -0.05252,0.04095 -0.09444,0.144116 -0.157559,0.122865 -0.05802,-0.01953 -0.257961,-0.633096 -0.478895,-0.591519 -0.203776,0.09122 -0.09248,0.05881 -0.336622,0.08732 -0.08598,0.03784 -0.149614,0.114222 -0.229854,0.163078 -0.325436,0.19815 -0.674564,0.318807 -0.900979,0.653715 -0.283181,0.123431 -0.391969,0.143871 -0.626866,0.356674 -0.09566,0.08666 -0.158275,0.206408 -0.256698,0.289915 -0.21704,0.184149 -0.419085,0.09541 -0.472038,0.442309 0,0 -0.06025,-0.765489 -0.06025,-0.765489 z" />
    <path
       style="fill:#000000;fill-opacity:1;fill-rule:nonzero;stroke:none"
       id="path3884"
       d="m 20.035156,49.750598 c 0.238951,-0.07589 0.471455,-0.03359 0.713905,-0.114805 0.118124,-0.03957 0.223294,-0.113404 0.342531,-0.149484 0.929422,-0.281235 -0.174655,0.189089 0.794942,-0.259714 0.137945,-0.03303 0.275891,-0.06607 0.413837,-0.0991 0.130186,-0.09647 0.233272,-0.250469 0.390557,-0.289401 0.125799,-0.03114 0.254507,0.145405 0.37578,0.09971 0.154116,-0.05807 0.175363,-0.314236 0.331628,-0.366243 0.391339,0.20074 0.200417,0.204354 0.572312,0.0253 0.123568,0.147804 0.370575,0.07811 0.506447,0.198104 0.09903,0.08746 0.116841,0.250576 0.225199,0.326169 0.0704,0.04911 0.184761,-0.03546 0.257299,0.01043 0.108931,0.06892 0.147754,0.213027 0.239308,0.303765 0.0754,0.07473 0.171324,0.125403 0.256986,0.188104 0.161545,0.279396 0.27804,0.541748 0.52684,0.756745 0.08259,0.07137 0.1958,0.09847 0.284684,0.161825 0.101764,0.07254 0.180709,0.174614 0.284646,0.244005 0.05351,0.03573 0.531387,0.246027 0.58339,0.269244 1.349623,0.65837 -0.714836,-0.298575 0.658619,0.173788 0.131208,0.04513 0.220877,0.179105 0.353562,0.219685 0.225679,0.06902 1.020262,-0.05442 1.281824,-0.07249 0.312751,-0.0541 0.626991,0.02213 0.939628,0.0032 0.150336,-0.0091 0.296759,-0.05296 0.446465,-0.06946 0.138073,-0.01521 0.278964,-0.0025 0.415943,-0.02556 1.121626,-0.188965 -0.287005,-0.05591 0.71051,-0.134527 0.208722,-0.01448 0.409146,0.0519 0.614745,0.06633 0.09729,0.0068 0.198113,-0.02605 0.292582,-0.0018 0.104362,0.02678 0.185841,0.110989 0.286152,0.150307 0.04958,0.01943 0.55368,0.140728 0.600609,0.152193 0.07766,0.04689 0.566745,0.347061 0.644871,0.37373 0.11253,0.03841 0.236929,0.0245 0.353435,0.04826 0.12679,0.02586 0.246294,0.08709 0.375018,0.100306 1.088185,0.111706 -0.282959,-0.205973 0.865291,0.100159 1.195598,0.0481 -0.266457,0.0548 1.014465,-0.187187 0.181266,-0.03424 0.369683,0.01926 0.553412,0.0027 0.723508,-0.06515 0.977153,-0.268091 1.516336,-0.711561 0.92208,0.09387 -0.06372,0.05206 0.74725,-0.07701 0.09222,-0.01468 0.186148,0.01546 0.279399,0.02037 0.07586,0.004 0.155195,-0.01596 0.22782,0.0063 0.139384,0.04278 0.246644,0.155563 0.37026,0.232875 0.190343,-0.01033 0.288496,0.213349 0.438347,0.268004 0.04675,0.01705 0.110515,-0.04432 0.148758,-0.01248 0.308589,0.256894 -0.02626,0.365482 0.346258,0.147312 0.467019,0.429906 -0.03086,0.0975 0.510289,0.09831 0.30544,4.59e-4 0.366066,0.260521 0.699534,0.166555 1.715553,-0.483416 -0.792411,-0.142839 0.827909,-0.31996 0.421663,-0.0028 0.434222,0.03679 0.831005,-0.123623 0.130062,-0.05258 0.240549,-0.149256 0.373556,-0.193866 0.456562,-0.153129 0.227603,0.01727 0.664832,0.0076 0.09898,-0.0022 0.192673,-0.04563 0.28901,-0.06844 0.270613,0.0254 0.430309,-0.172595 0.692673,-0.05213 0.07293,0.03349 0.119929,0.119116 0.198254,0.136612 0.660384,0.147515 -0.27573,-0.303175 0.384092,0.05252 0.61777,0.133876 -0.294982,-0.07985 0.383674,0.139245 0.06586,0.02126 0.138662,0.01239 0.205245,0.03126 0.08073,0.02287 0.150774,0.08147 0.233871,0.09315 0.694572,0.09763 -0.210567,-0.213532 0.561019,0.09607 0.107797,-0.003 0.215569,-0.0071 0.323391,-0.009 0.118401,-0.0021 0.238412,0.01648 0.355246,-0.0028 0.36,-0.05951 0.68366,-0.305085 1.011003,-0.401646 0.09158,-0.02701 0.189992,-0.01923 0.284988,-0.02885 0.28194,-0.01084 0.329887,-0.121423 0.607225,-0.0685 0,0 -0.0058,0.794159 -0.0058,0.794159 l 0,0 c -0.280426,-0.171019 -0.252303,-0.03301 -0.5798,-0.04282 -0.939086,0.454193 0.414616,-0.172801 -0.606073,0.204641 -0.121084,0.04478 -0.219997,0.141532 -0.343667,0.178572 -0.115863,0.0347 -0.241621,0.01566 -0.361379,0.0326 -0.520609,0.07361 -0.207698,0.137477 -0.690029,-0.07671 -0.102315,0.02841 -0.200807,0.08844 -0.306945,0.08524 -0.09464,-0.0029 -0.173821,-0.07669 -0.264926,-0.102487 -0.07794,-0.02207 -0.159758,-0.02691 -0.239637,-0.04037 -0.06898,-0.0018 -0.14025,0.01224 -0.206952,-0.0055 -0.09762,-0.02589 -0.298905,-0.169417 -0.380336,-0.223558 -0.07786,0.0046 -0.302119,0.03045 -0.377461,-0.01569 -0.08069,-0.04941 -0.10456,-0.175929 -0.193785,-0.207422 -0.06812,-0.02405 -0.135007,0.05497 -0.206376,0.06618 -0.07335,0.01152 -0.148499,7.94e-4 -0.222749,0.0012 -0.08203,0.01687 -0.16406,0.03375 -0.24609,0.05062 -0.311158,0.02702 -0.642522,0.103654 -0.94139,0.196735 -0.128081,0.03989 -0.243804,0.117274 -0.374589,0.147131 -0.132971,0.03036 -0.273184,0.01059 -0.407961,0.03152 -0.144514,0.02244 -0.285068,0.06548 -0.427602,0.09822 -0.431854,0.04045 -0.420972,0.01983 -0.838429,0.136592 -0.127517,0.03567 -0.245035,0.129126 -0.377352,0.124101 -0.122612,-0.0047 -0.217726,-0.117193 -0.335627,-0.151177 -0.191447,-0.05518 -0.342929,-0.02353 -0.532067,-0.0044 -0.764125,-0.286512 0.398389,0.179833 -0.360118,-0.235414 -0.04391,-0.02404 -0.105515,0.0133 -0.149865,-0.0099 -0.161592,-0.08463 -0.201272,-0.331674 -0.420657,-0.326635 -0.146094,-0.09328 -0.363613,-0.314408 -0.561232,-0.220847 -0.105677,0.05003 -0.155416,0.192519 -0.266981,0.227507 -0.108049,0.03388 -0.22506,-0.02527 -0.337591,-0.03791 -0.133994,0.05041 -0.267988,0.100811 -0.401982,0.151216 -0.226095,0.05343 -0.763881,0.183589 -0.983535,0.222416 -0.182401,0.03224 -0.370246,0.0335 -0.550373,0.07668 -0.547973,0.131352 -1.002024,0.432972 -1.583703,0.220074 -0.353246,0.04287 -0.526103,0.08923 -0.878124,0.03643 -0.03099,-0.0046 -0.687304,-0.18767 -0.732446,-0.194988 -0.572972,-0.09288 -0.125354,0.111509 -0.651653,-0.206894 -0.100457,-0.03603 -0.205995,-0.06019 -0.301371,-0.10808 -0.10295,-0.05169 -0.177448,-0.16222 -0.289579,-0.188621 -0.09535,-0.02245 -0.191451,0.05919 -0.289169,0.05235 -0.09889,-0.0069 -0.184497,-0.07879 -0.282698,-0.09237 -0.533957,-0.07386 -0.08608,0.207375 -0.600908,-0.269258 -0.317418,0.192689 -0.317878,0.255422 -0.706071,0.241146 -0.140934,-0.0052 -0.278774,-0.100915 -0.416868,-0.07229 -0.166747,0.03457 -0.277587,0.219736 -0.444995,0.250952 -0.309773,0.05776 -0.635957,-0.281016 -0.945331,0.0036 -1.167335,0.01922 0.226462,0.0025 -0.895292,-0.003 -0.232987,-0.0012 -0.542355,0.03995 -0.768993,-0.06153 -0.236467,-0.105888 -0.387296,-0.36426 -0.662578,-0.406388 -0.103824,-0.01587 -0.212712,-0.01186 -0.311472,-0.04761 -0.325757,-0.11791 -0.621735,-0.416412 -0.856037,-0.656359 -0.09526,-0.09755 -0.16886,-0.219401 -0.28043,-0.297774 -0.08093,-0.05685 -0.187083,-0.06423 -0.280624,-0.09634 -0.07871,-0.149284 -0.133961,-0.313524 -0.236121,-0.447851 -0.06138,-0.08071 -0.171643,-0.11083 -0.243318,-0.182549 -0.08804,-0.08809 -0.13963,-0.209296 -0.23189,-0.292955 -0.06379,-0.05784 -0.155263,-0.07567 -0.227061,-0.123208 -0.341936,-0.226412 -0.07707,-0.167512 -0.468612,-0.182731 -0.183603,0.03649 -0.359387,0.108599 -0.544071,0.139152 -0.111935,0.01852 -0.229086,-0.0083 -0.340014,0.01554 -0.422411,0.0907 -0.342463,0.186049 -0.759628,0.334164 -0.133105,0.04726 -0.276242,0.05909 -0.414363,0.08864 -0.26638,0.107 -0.521333,0.242891 -0.792576,0.336883 -0.112831,0.0391 -0.234827,0.0459 -0.348955,0.08104 -0.101455,0.03123 -0.192302,0.09475 -0.295987,0.117509 -0.07913,0.01737 -0.163702,-0.01563 -0.243027,8.01e-4 -0.06575,0.01362 -0.121066,0.0581 -0.181599,0.08715 0,0 -0.0137,-0.829787 -0.0137,-0.829787 z" />
  </g>
</svg>
